<?xml version="1.0" encoding="UTF-8"?>
<svg width="626px" height="424px" viewBox="0 0 626 424" version="1.1" xmlns="http://www.w3.org/2000/svg" xmlns:xlink="http://www.w3.org/1999/xlink">
    <!-- Generator: Sketch 55.2 (78181) - https://sketchapp.com -->
    <title>code</title>
    <desc>Created with Sketch.</desc>
    <g id="code" stroke="none" stroke-width="1" fill="none" fill-rule="evenodd">
        <g fill="#FFFFFF" fill-rule="nonzero" id="Shape">
            <path d="M275.579219,423.587012 L220.781953,408.928097 C215.032732,407.43736 211.798795,401.888505 213.415764,396.588107 L336.035875,7.17444215 C337.652843,1.87404349 343.671559,-1.10743076 349.420781,0.383306361 L404.218047,15.0422214 C409.967268,16.5329585 413.201205,22.0818134 411.584236,27.3822121 L288.964125,416.795877 C287.257325,422.096275 281.328441,425.160568 275.579219,423.587012 L275.579219,423.587012 Z M165.9,355.3 L209.4,308.9 C214,304 213.7,296.2 208.6,291.7 L118,212 L208.6,132.3 C213.7,127.8 214.1,120 209.4,115.1 L165.9,68.7 C161.4,63.9 153.8,63.6 148.9,68.2 L4.8,203.2 C-0.3,207.9 -0.3,216 4.8,220.7 L148.9,355.8 C153.8,360.4 161.4,360.2 165.9,355.3 L165.9,355.3 Z M477.1,355.9 L621.2,220.8 C626.3,216.1 626.3,208 621.2,203.3 L477.1,68.1 C472.3,63.6 464.7,63.8 460.1,68.6 L416.6,115 C412,119.9 412.3,127.7 417.4,132.2 L508,212 L417.4,291.7 C412.3,296.2 411.9,304 416.6,308.9 L460.1,355.3 C464.6,360.2 472.2,360.4 477.1,355.9 Z"></path>
        </g>
    </g>
</svg>