<?xml version="1.0" encoding="UTF-8"?>
<svg width="576px" height="512px" viewBox="0 0 576 512" version="1.1" xmlns="http://www.w3.org/2000/svg" xmlns:xlink="http://www.w3.org/1999/xlink">
    <!-- Generator: Sketch 55.2 (78181) - https://sketchapp.com -->
    <title>external</title>
    <desc>Created with Sketch.</desc>
    <g id="external" stroke="none" stroke-width="1" fill="none" fill-rule="evenodd">
        <g id="external-link-alt" fill="#FFFFFF" fill-rule="nonzero">
            <path d="M576,24 L576,151.984 C576,173.445 550.04,183.964 535.029,168.955 L499.322,133.246 L255.799,376.769 C246.426,386.142 231.231,386.142 221.858,376.769 L199.231,354.142 C189.858,344.769 189.858,329.573 199.231,320.201 L442.756,76.676 L407.053,40.971 C391.982,25.9 402.656,0 424.024,0 L552,0 C565.255,0 576,10.745 576,24 Z M407.029,270.794 L391.029,286.794 C386.528087,291.29499 383.999658,297.399694 384,303.765 L384,448 L64,448 L64,128 L328,128 C334.364872,127.999637 340.469007,125.471296 344.97,120.971 L360.97,104.971 C376.089,89.851 365.381,64 344,64 L48,64 C21.49,64 0,85.49 0,112 L0,464 C0,490.51 21.49,512 48,512 L400,512 C426.51,512 448,490.51 448,464 L448,287.764 C448,266.382 422.148,255.674 407.029,270.794 Z" id="Shape"></path>
        </g>
    </g>
</svg>