<?xml version="1.0" encoding="UTF-8"?>
<svg width="512px" height="512px" viewBox="0 0 512 512" version="1.1" xmlns="http://www.w3.org/2000/svg" xmlns:xlink="http://www.w3.org/1999/xlink">
    <!-- Generator: Sketch 55.2 (78181) - https://sketchapp.com -->
    <title>ruler</title>
    <desc>Created with Sketch.</desc>
    <g id="ruler" stroke="none" stroke-width="1" fill="none" fill-rule="evenodd">
        <g id="ruler-combined" fill="#FFFFFF" fill-rule="nonzero">
            <path d="M160,288 L104,288 C99.58,288 96,284.42 96,280 L96,264 C96,259.58 99.58,256 104,256 L160,256 L160,192 L104,192 C99.58,192 96,188.42 96,184 L96,168 C96,163.58 99.58,160 104,160 L160,160 L160,96 L104,96 C99.58,96 96,92.42 96,88 L96,72 C96,67.58 99.58,64 104,64 L160,64 L160,32 C160,14.33 145.67,0 128,0 L32,0 C14.33,0 0,14.33 0,32 L0,480 C0,482.77 0.91,485.24 1.57,487.8 L160,329.38 L160,288 Z M480,352 L448,352 L448,408 C448,412.42 444.42,416 440,416 L424,416 C419.58,416 416,412.42 416,408 L416,352 L352,352 L352,408 C352,412.42 348.42,416 344,416 L328,416 C323.58,416 320,412.42 320,408 L320,352 L256,352 L256,408 C256,412.42 252.42,416 248,416 L232,416 C227.58,416 224,412.42 224,408 L224,352 L182.63,352 L24.2,510.43 C26.76,511.09 29.24,512 32,512 L480,512 C497.67,512 512,497.67 512,480 L512,384 C512,366.33 497.67,352 480,352 Z" id="Shape"></path>
        </g>
    </g>
</svg>